<svg viewBox="0 0 48 48" xmlns="http://www.w3.org/2000/svg"><g fill="#747575"><path d="m38 47h-10a1 1 0 0 1 0-2h10a1 1 0 0 1 0 2z"/><path d="m11 47h-9a1 1 0 0 1 0-2h9a1 1 0 0 1 0 2z"/><path d="m24 47h-2a1 1 0 0 1 0-2h2a1 1 0 0 1 0 2z"/></g><path d="m21 27v5h-8a5 5 0 0 0 -5 5v4h-7v-4a12 12 0 0 1 12-12h6a2 2 0 0 1 2 2z" fill="#c4455e"/><path d="m19 25h-6a12 12 0 0 0 -10.87 6.93c4.22-4.63 8.81-3.93 14.87-3.93a2 2 0 0 1 2 2v2h2v-5a2 2 0 0 0 -2-2z" fill="#db5669"/><path d="m37 31-4 10h-12v-4h6.49a2 2 0 0 0 2-1.83c1.65-20.95 1.51-18.9 1.51-19.17l4 1c.2 1.42-.13-.85 2 14z" fill="#db5669"/><path d="m37 31c-3.29 8.23-3.3 8-3.2 8a1.36 1.36 0 0 1 -1.26-1.86l2.46-6.14c-2.13-14.85-1.8-12.6-2-14-2.4-.6-2.05-.32-2-1l4 1c.2 1.42-.13-.85 2 14z" fill="#f26674"/><path d="m39 10v6a1 1 0 0 1 -1 1h-5a4 4 0 0 1 0-8h5a1 1 0 0 1 1 1z" fill="#db5669"/><path d="m35.14 18c-2 0-3.06.15-4.25-.61.16-1.86-.27-.39 2.11-.39h2z" fill="#c4455e"/><path d="m42 13a3 3 0 0 1 -3 3v-6a3 3 0 0 1 3 3z" fill="#fc6"/><path d="m41.56 14.56a3 3 0 0 1 -1.56.44v-4.82a3 3 0 0 1 1.56 4.38z" fill="#ffde76"/><path d="m31 14h-6a1 1 0 0 1 0-2h6a1 1 0 0 1 0 2z" fill="#374f68"/><path d="m47 41h-14c4.39-11 3.86-10 4.33-10a10 10 0 0 1 9.67 10z" fill="#c4455e"/><path d="m46.8 39h-13l3.2-8a10 10 0 0 1 9.8 8z" fill="#db5669"/><path d="m17 41a6 6 0 0 1 -12 0z" fill="#374f68"/><path d="m43.91 42c-1.1 6.64-10.72 6.63-11.82 0z" fill="#374f68"/><path d="m13 41a2 2 0 0 1 -4 0z" fill="#7c7d7d"/><path d="m39.73 42a2 2 0 0 1 -3.46 0z" fill="#7c7d7d"/><path d="m1 13h14v12h-14z" fill="#a87e6b"/><path d="m15 13v10h-6a4 4 0 0 1 -4-4v-6z" fill="#be927c"/><path d="m21 25h-6v-4c1.91 0 4.13-.31 5.46 2a4 4 0 0 1 .54 2z" fill="#2c435e"/><path d="m20.46 23h-5.46v-2c1.91 0 4.13-.31 5.46 2z" fill="#374f68"/><path d="m10 13v6l-2-1-2 1v-6z" fill="#f6ccaf"/><path d="m39 10v5h-1a6 6 0 0 1 -6-6h6a1 1 0 0 1 1 1z" fill="#f26674"/><path d="m32 10c-.75 0-.61-.07-3.83-5.45a1 1 0 0 1 1.66-1.1l3 5a1 1 0 0 1 -.83 1.55z" fill="#374f68"/><path d="m28 5h-3v-4h3a2 2 0 0 1 0 4z" fill="#db5669"/><path d="m21 32v9h-13v-4a5 5 0 0 1 5-5z" fill="#db5669"/><path d="m13 32a5 5 0 0 0 -4.37 2.63c1.48-.81 1.65-.63 10.37-.63v7h2v-9z" fill="#f26674"/><path d="m10 13v4h-1a2 2 0 0 1 -2-2v-2z" fill="#ffdec7"/><path d="m40 41a2 2 0 0 1 -.27 1h-3.46a2 2 0 0 1 -.27-1z" fill="#747575"/><path d="m36 41a2 2 0 0 0 .27 1h-4.18a5.47 5.47 0 0 1 -.09-1z" fill="#2c435e"/><path d="m44 41a5.47 5.47 0 0 1 -.09 1h-4.18a2 2 0 0 0 .27-1z" fill="#2c435e"/><path d="m13 41a2 2 0 0 1 -.27 1h-3.46a2 2 0 0 1 -.27-1z" fill="#747575"/><path d="m9 41a2 2 0 0 0 .27 1h-4.18a5.47 5.47 0 0 1 -.09-1z" fill="#2c435e"/><path d="m17 41a5.47 5.47 0 0 1 -.09 1h-4.18a2 2 0 0 0 .27-1z" fill="#2c435e"/></svg>